<svg width="156" height="26" viewBox="0 0 156 26" fill="none" xmlns="http://www.w3.org/2000/svg">
<path d="M9.74732 12.384C10.3546 12.384 10.8607 12.1309 11.2656 11.6248C11.6907 11.1187 12.0349 10.5013 12.298 9.77253C12.5814 9.04375 12.7839 8.28462 12.9053 7.49511C13.0268 6.70561 13.0875 6.01733 13.0875 5.43026C13.0875 4.88368 12.9964 4.4282 12.8142 4.06381C12.632 3.67918 12.2373 3.48687 11.63 3.48687H10.2635L8.35051 12.384H9.74732ZM7.92539 14.3273L6.55895 20.7041H0L4.09934 1.42202H11.1138C12.2677 1.42202 13.3203 1.48275 14.2718 1.60421C15.2232 1.72567 16.0431 1.9686 16.7314 2.33298C17.4197 2.69737 17.9561 3.2237 18.3408 3.91199C18.7254 4.58003 18.9177 5.48087 18.9177 6.61452C18.9177 7.66719 18.7456 8.66925 18.4015 9.6207C18.0776 10.5519 17.5411 11.3718 16.7921 12.0803C16.0633 12.7686 15.1119 13.3152 13.9378 13.72C12.7636 14.1249 11.3364 14.3273 9.65623 14.3273H7.92539ZM30.1714 7.00927C30.2322 6.70561 30.2625 6.29062 30.2625 5.76428C30.2625 5.46063 30.2423 5.16709 30.2018 4.88368C30.1613 4.58003 30.0905 4.31686 29.9892 4.09418C29.888 3.85126 29.7362 3.66906 29.5338 3.5476C29.3313 3.4059 29.0682 3.33504 28.7443 3.33504C28.3799 3.33504 28.0458 3.41602 27.7422 3.57797C27.4385 3.73992 27.1652 3.95247 26.9223 4.21564C26.6996 4.45857 26.5175 4.7521 26.3757 5.09624C26.2543 5.42014 26.1936 5.76428 26.1936 6.12867C26.1936 6.655 26.3251 7.05988 26.5883 7.34329C26.8717 7.6267 27.2361 7.8595 27.6815 8.04169C28.1268 8.22389 28.6329 8.37571 29.1997 8.49718C29.7666 8.61864 30.3536 8.76034 30.9609 8.92229C31.467 9.064 31.9731 9.24619 32.4792 9.46887C32.9853 9.69155 33.4307 9.99521 33.8153 10.3798C34.2202 10.7442 34.5441 11.2301 34.787 11.8374C35.0299 12.4244 35.1514 13.1633 35.1514 14.0541C35.1514 15.3294 34.8983 16.4023 34.3922 17.2728C33.8861 18.1433 33.1877 18.8518 32.297 19.3984C31.4063 19.945 30.3435 20.3397 29.1086 20.5826C27.894 20.8256 26.5681 20.947 25.1308 20.947C23.6732 20.947 22.4788 20.8559 21.5476 20.6737C20.6367 20.4713 19.918 20.2587 19.3917 20.0361C18.7641 19.7729 18.2985 19.4692 17.9949 19.1251L19.0273 14.965H24.3716C24.3514 15.1472 24.3311 15.4003 24.3109 15.7242C24.2906 16.0278 24.2805 16.2707 24.2805 16.4529C24.2805 16.6959 24.3109 16.9489 24.3716 17.2121C24.4324 17.4752 24.5235 17.7182 24.6449 17.9408C24.7866 18.1635 24.9789 18.3457 25.2219 18.4874C25.4648 18.6291 25.7684 18.7 26.1328 18.7C26.5377 18.7 26.892 18.6089 27.1956 18.4267C27.5195 18.2445 27.7827 18.0218 27.9851 17.7586C28.2078 17.4752 28.3697 17.1716 28.471 16.8477C28.5924 16.5035 28.6532 16.1695 28.6532 15.8456C28.6532 15.4003 28.5418 15.0258 28.3191 14.7221C28.1167 14.4184 27.8333 14.1654 27.4689 13.963C27.1045 13.7403 26.6794 13.5581 26.1936 13.4164C25.7279 13.2544 25.2421 13.0925 24.736 12.9305C24.2502 12.7888 23.7339 12.6168 23.1874 12.4143C22.661 12.2119 22.1752 11.9285 21.7298 11.5641C21.2845 11.1997 20.91 10.7442 20.6063 10.1976C20.3229 9.63082 20.1812 8.91217 20.1812 8.04169C20.1812 6.7461 20.5051 5.66306 21.1529 4.79259C21.8209 3.90187 22.6509 3.18322 23.6429 2.63664C24.655 2.09006 25.7583 1.70543 26.9527 1.48275C28.1471 1.23982 29.2807 1.11836 30.3536 1.11836C31.7707 1.11836 32.9853 1.29043 33.9975 1.63458C35.0299 1.95847 35.8093 2.3431 36.3356 2.78846L35.2121 7.00927H30.1714Z" fill="#FCC000"/>
<path d="M45.9408 1.42202H52.5302L48.947 18.1534H55.1112L54.595 20.7041H41.8415L45.9408 1.42202ZM62.5467 14.6006C62.4658 15.046 62.405 15.4711 62.3645 15.876C62.3443 16.2809 62.3342 16.6452 62.3342 16.9691C62.3342 17.1513 62.3443 17.3538 62.3645 17.5765C62.3848 17.7991 62.4253 18.0117 62.486 18.2141C62.567 18.3963 62.6682 18.5583 62.7897 18.7C62.9314 18.8214 63.1237 18.8822 63.3666 18.8822C63.5488 18.8822 63.7512 18.8214 63.9739 18.7C64.2168 18.5785 64.4496 18.4064 64.6723 18.1838C64.9152 17.9611 65.1379 17.6878 65.3404 17.3639C65.563 17.04 65.7351 16.6756 65.8566 16.2707H70.8365L70.047 19.5198C69.6421 19.783 69.1765 20.0057 68.6502 20.1879C68.1239 20.3701 67.5672 20.5219 66.9801 20.6434C66.393 20.7446 65.7958 20.8154 65.1885 20.8559C64.5812 20.9167 64.0043 20.947 63.4577 20.947C62.4455 20.947 61.5042 20.8559 60.6337 20.6737C59.7632 20.4915 59.0041 20.1778 58.3563 19.7324C57.7085 19.287 57.1923 18.7 56.8077 17.9712C56.4433 17.2222 56.2611 16.3011 56.2611 15.2079C56.2611 14.216 56.4129 13.2443 56.7166 12.2929C57.0405 11.3414 57.5668 10.5013 58.2956 9.77253C59.0446 9.02351 60.0365 8.42632 61.2714 7.98096C62.5265 7.5356 64.0852 7.31292 65.9477 7.31292C67.972 7.31292 69.4903 7.6267 70.5025 8.25425C71.5349 8.88181 72.0511 9.86362 72.0511 11.1997C72.0511 11.7463 71.9702 12.3435 71.8082 12.9913C71.6463 13.6188 71.4033 14.1553 71.0794 14.6006H62.5467ZM66.5853 10.9871C66.5853 10.3596 66.4841 9.93448 66.2817 9.7118C66.0793 9.48911 65.8363 9.37777 65.5529 9.37777C65.229 9.37777 64.9254 9.48911 64.6419 9.7118C64.3788 9.91423 64.1359 10.1976 63.9132 10.562C63.6905 10.9062 63.4881 11.311 63.3059 11.7766C63.1237 12.222 62.9718 12.6977 62.8504 13.2038H66.3121C66.3525 12.9609 66.393 12.7079 66.4335 12.4447C66.474 12.222 66.5044 11.9791 66.5246 11.7159C66.5651 11.4527 66.5853 11.2098 66.5853 10.9871ZM84.9223 7.64694H89.8415L87.3515 19.4591C87.1693 20.3701 86.8657 21.2102 86.4406 21.9795C86.0155 22.7487 85.4183 23.4168 84.649 23.9836C83.9 24.5504 82.9485 24.9958 81.7947 25.3197C80.661 25.6436 79.2743 25.8055 77.6346 25.8055C77.3309 25.8055 76.9665 25.7954 76.5414 25.7751C76.1163 25.7751 75.6811 25.765 75.2357 25.7448C74.7903 25.7448 74.3652 25.7347 73.9604 25.7144C73.5555 25.6942 73.2316 25.6739 72.9887 25.6537L73.5656 23.4674C74.2134 23.5686 74.8713 23.6192 75.5394 23.6192C76.2276 23.6394 76.8147 23.6496 77.3006 23.6496C77.9079 23.6496 78.414 23.5888 78.8188 23.4674C79.244 23.3661 79.5881 23.1941 79.8513 22.9511C80.1347 22.7082 80.3574 22.3843 80.5193 21.9795C80.7015 21.5746 80.8432 21.0786 80.9444 20.4915L81.3088 18.5178H81.0962C80.9748 18.7 80.7926 18.9227 80.5497 19.1858C80.327 19.4288 80.0335 19.6717 79.6691 19.9146C79.3047 20.1373 78.8694 20.3296 78.3634 20.4915C77.8775 20.6332 77.3208 20.7041 76.6933 20.7041C75.9847 20.7041 75.3774 20.6029 74.8713 20.4004C74.3855 20.1778 73.9907 19.8842 73.6871 19.5198C73.3834 19.1352 73.1607 18.6899 73.019 18.1838C72.8773 17.6574 72.8065 17.0906 72.8065 16.4833C72.8065 16.2201 72.8267 15.8153 72.8672 15.2687C72.9077 14.7221 72.9988 14.1047 73.1405 13.4164C73.3024 12.7281 73.5251 12.0297 73.8085 11.3212C74.1122 10.5924 74.5069 9.93448 74.9928 9.34741C75.4989 8.76034 76.1163 8.2745 76.8451 7.88987C77.5941 7.50524 78.4949 7.31292 79.5476 7.31292C79.8715 7.31292 80.2258 7.34329 80.6104 7.40402C80.995 7.46475 81.3695 7.57609 81.7339 7.73804C82.0983 7.89999 82.4222 8.13279 82.7056 8.43644C82.989 8.7401 83.2117 9.13485 83.3737 9.6207H83.5559L84.9223 7.64694ZM81.5214 10.2887C81.0355 10.2887 80.6306 10.5519 80.3067 11.0782C79.9828 11.5843 79.7197 12.1815 79.5172 12.8698C79.3148 13.5581 79.163 14.2464 79.0618 14.9347C78.9808 15.6027 78.9403 16.0987 78.9403 16.4226C78.9403 16.8274 79.001 17.1716 79.1225 17.455C79.2642 17.7182 79.5071 17.8497 79.8513 17.8497C80.0537 17.8497 80.246 17.7991 80.4282 17.6979C80.6306 17.5967 80.8128 17.4854 80.9748 17.3639C81.157 17.2222 81.3088 17.0805 81.4303 16.9388C81.572 16.7971 81.6732 16.6857 81.7339 16.6048L82.8574 11.2908C82.6955 11.0681 82.5032 10.8454 82.2805 10.6228C82.0781 10.4001 81.825 10.2887 81.5214 10.2887ZM96.7079 14.6006C96.6269 15.046 96.5662 15.4711 96.5257 15.876C96.5055 16.2809 96.4953 16.6452 96.4953 16.9691C96.4953 17.1513 96.5055 17.3538 96.5257 17.5765C96.546 17.7991 96.5864 18.0117 96.6472 18.2141C96.7281 18.3963 96.8294 18.5583 96.9508 18.7C97.0925 18.8214 97.2848 18.8822 97.5278 18.8822C97.71 18.8822 97.9124 18.8214 98.1351 18.7C98.378 18.5785 98.6108 18.4064 98.8335 18.1838C99.0764 17.9611 99.2991 17.6878 99.5015 17.3639C99.7242 17.04 99.8963 16.6756 100.018 16.2707H104.998L104.208 19.5198C103.803 19.783 103.338 20.0057 102.811 20.1879C102.285 20.3701 101.728 20.5219 101.141 20.6434C100.554 20.7446 99.957 20.8154 99.3497 20.8559C98.7424 20.9167 98.1654 20.947 97.6189 20.947C96.6067 20.947 95.6654 20.8559 94.7949 20.6737C93.9244 20.4915 93.1653 20.1778 92.5175 19.7324C91.8697 19.287 91.3535 18.7 90.9688 17.9712C90.6044 17.2222 90.4222 16.3011 90.4222 15.2079C90.4222 14.216 90.5741 13.2443 90.8777 12.2929C91.2016 11.3414 91.728 10.5013 92.4567 9.77253C93.2057 9.02351 94.1977 8.42632 95.4326 7.98096C96.6877 7.5356 98.2464 7.31292 100.109 7.31292C102.133 7.31292 103.651 7.6267 104.664 8.25425C105.696 8.88181 106.212 9.86362 106.212 11.1997C106.212 11.7463 106.131 12.3435 105.969 12.9913C105.807 13.6188 105.565 14.1553 105.241 14.6006H96.7079ZM100.747 10.9871C100.747 10.3596 100.645 9.93448 100.443 9.7118C100.24 9.48911 99.9975 9.37777 99.7141 9.37777C99.3902 9.37777 99.0865 9.48911 98.8031 9.7118C98.54 9.91423 98.297 10.1976 98.0743 10.562C97.8517 10.9062 97.6492 11.311 97.467 11.7766C97.2848 12.222 97.133 12.6977 97.0116 13.2038H100.473C100.514 12.9609 100.554 12.7079 100.595 12.4447C100.635 12.222 100.666 11.9791 100.686 11.7159C100.726 11.4527 100.747 11.2098 100.747 10.9871ZM114.832 9.59033C115.257 9.18546 115.733 8.81095 116.259 8.46681C116.725 8.1834 117.272 7.92023 117.899 7.67731C118.527 7.43438 119.225 7.31292 119.994 7.31292C121.047 7.31292 121.918 7.58621 122.606 8.13279C123.294 8.65912 123.638 9.3879 123.638 10.3191C123.638 10.5823 123.608 10.9062 123.547 11.2908C123.486 11.6552 123.416 12.0398 123.335 12.4447C123.254 12.8496 123.163 13.2646 123.061 13.6897C122.98 14.0945 122.91 14.4589 122.849 14.7828L121.573 20.7041H115.409L117.079 12.7787C117.12 12.5155 117.17 12.2524 117.231 11.9892C117.292 11.7058 117.322 11.4527 117.322 11.2301C117.322 10.9264 117.241 10.6835 117.079 10.5013C116.938 10.2989 116.715 10.1976 116.411 10.1976C116.047 10.1976 115.693 10.3292 115.349 10.5924C115.025 10.8556 114.772 11.0782 114.589 11.2604L112.585 20.7041H106.391L109.154 7.64694H114.104L114.65 9.59033H114.832ZM137.119 0.298493H143.344L139.001 20.7041H134.082L133.536 18.7607H133.323C133.202 18.9429 133.009 19.1656 132.746 19.4288C132.503 19.6717 132.189 19.9146 131.805 20.1575C131.42 20.3802 130.965 20.5624 130.438 20.7041C129.912 20.8661 129.305 20.947 128.616 20.947C127.908 20.947 127.3 20.8458 126.794 20.6434C126.309 20.4207 125.904 20.1272 125.58 19.7628C125.276 19.3984 125.053 18.9631 124.912 18.4571C124.77 17.9307 124.699 17.3639 124.699 16.7566C124.699 16.4934 124.719 16.0784 124.76 15.5116C124.8 14.9245 124.891 14.2869 125.033 13.5986C125.195 12.89 125.418 12.1714 125.701 11.4426C126.005 10.6936 126.4 10.0155 126.885 9.40814C127.392 8.80083 128.009 8.30486 128.738 7.92023C129.467 7.51536 130.347 7.31292 131.38 7.31292C131.703 7.31292 132.048 7.34329 132.412 7.40402C132.776 7.46475 133.121 7.57609 133.444 7.73804C133.789 7.89999 134.092 8.13279 134.355 8.43644C134.619 8.7401 134.811 9.13485 134.932 9.6207H135.145L137.119 0.298493ZM133.414 10.2887C132.928 10.2887 132.523 10.562 132.199 11.1086C131.876 11.6349 131.612 12.2524 131.41 12.9609C131.208 13.6694 131.056 14.378 130.954 15.0865C130.873 15.795 130.833 16.3213 130.833 16.6655C130.833 17.0704 130.894 17.4145 131.015 17.6979C131.137 17.9611 131.369 18.0927 131.714 18.0927C131.916 18.0927 132.108 18.0522 132.291 17.9712C132.493 17.87 132.675 17.7586 132.837 17.6372C133.019 17.4955 133.171 17.3538 133.293 17.2121C133.414 17.0704 133.515 16.9489 133.596 16.8477L134.781 11.3212C134.639 11.0985 134.447 10.8758 134.204 10.6531C133.981 10.4102 133.718 10.2887 133.414 10.2887ZM151.334 11.473C151.354 11.3718 151.375 11.2706 151.395 11.1693C151.415 11.0681 151.425 10.9568 151.425 10.8353C151.425 10.4709 151.354 10.1369 151.213 9.83326C151.091 9.50936 150.838 9.34741 150.454 9.34741C150.109 9.34741 149.765 9.49924 149.421 9.80289C149.077 10.0863 148.905 10.4709 148.905 10.9568C148.905 11.2807 148.986 11.5438 149.148 11.7463C149.33 11.9285 149.563 12.0803 149.846 12.2018C150.13 12.3232 150.444 12.4244 150.788 12.5054C151.152 12.5864 151.506 12.6674 151.85 12.7483C152.336 12.8698 152.792 13.0216 153.217 13.2038C153.662 13.3658 154.057 13.5885 154.401 13.8719C154.745 14.1553 155.019 14.5095 155.221 14.9347C155.423 15.3395 155.525 15.8456 155.525 16.4529C155.525 17.3032 155.322 18.0218 154.917 18.6089C154.533 19.1757 153.986 19.6413 153.278 20.0057C152.589 20.3498 151.769 20.5928 150.818 20.7345C149.887 20.8762 148.885 20.947 147.812 20.947C146.172 20.947 144.816 20.8256 143.743 20.5826C142.67 20.3397 141.921 20.1069 141.496 19.8842L142.133 16.8477H146.233C146.213 16.9489 146.202 17.0501 146.202 17.1513C146.202 17.2323 146.202 17.3234 146.202 17.4246C146.202 17.8902 146.304 18.2647 146.506 18.5482C146.729 18.8113 147.103 18.9429 147.63 18.9429C148.217 18.9429 148.632 18.781 148.875 18.4571C149.138 18.1129 149.269 17.7991 149.269 17.5157C149.269 17.2323 149.158 16.9894 148.935 16.787C148.733 16.5643 148.47 16.3821 148.146 16.2404C147.822 16.0784 147.458 15.9468 147.053 15.8456C146.668 15.7242 146.294 15.6128 145.929 15.5116C145.666 15.4509 145.362 15.3497 145.018 15.2079C144.694 15.0662 144.381 14.8638 144.077 14.6006C143.773 14.3375 143.52 14.0035 143.318 13.5986C143.115 13.1735 143.014 12.6471 143.014 12.0196C143.014 11.1289 143.227 10.39 143.652 9.80289C144.097 9.19558 144.664 8.70973 145.352 8.34535C146.061 7.98096 146.85 7.71779 147.721 7.55585C148.611 7.3939 149.502 7.31292 150.393 7.31292C151.506 7.31292 152.559 7.41414 153.551 7.61658C154.543 7.81901 155.353 8.08218 155.98 8.40608L155.282 11.473H151.334Z" fill="white"/>
</svg>
